Coordinates
version=1
nRows=8
nColumns=40
inDegrees=yes

Units are S.I. units (second, meters, Newtons, ...)
Angles are in degrees.

endheader
time	pelvis_tilt	pelvis_list	pelvis_rotation	pelvis_tx	pelvis_ty	pelvis_tz	hip_flexion_r	hip_adduction_r	hip_rotation_r	knee_angle_r	knee_angle_r_beta	ankle_angle_r	subtalar_angle_r	mtp_angle_r	hip_flexion_l	hip_adduction_l	hip_rotation_l	knee_angle_l	knee_angle_l_beta	ankle_angle_l	subtalar_angle_l	mtp_angle_l	lumbar_extension	lumbar_bending	lumbar_rotation	arm_flex_r	arm_add_r	arm_rot_r	elbow_flex_r	pro_sup_r	wrist_flex_r	wrist_dev_r	arm_flex_l	arm_add_l	arm_rot_l	elbow_flex_l	pro_sup_l	wrist_flex_l	wrist_dev_l
     30.20000000	     -3.66149462	     -2.79018175	     -3.21963092	      1.08868768	      0.92956007	      0.41460204	     33.42972109	     -7.17240347	     -5.12189717	     76.45717949	     76.45717949	      7.04755934	    -18.81706950	     11.01612267	     15.94961352	     -4.15141270	     -6.35268767	     23.42130892	     23.42130892	     12.75453197	    -14.03615383	     -1.51601047	    -10.10557418	      3.07749052	      0.82229567	      7.29449844	    -13.52994495	     -1.74698007	     65.92983789	     45.47876340	      0.00000000	      0.00000000	     12.20989915	    -14.36974028	      3.72365711	     36.58381568	     45.57111534	      0.00000000	      0.00000000
     30.21078571	     -3.40696333	     -2.91886621	     -3.54568241	      1.08805949	      0.93036757	      0.41502214	     34.38629341	     -6.92713921	     -4.84629504	     74.83511090	     74.83511090	      6.85621635	    -18.76496402	     10.62653753	     14.74360688	     -4.32439298	     -6.80960389	     22.93091569	     22.93091569	     13.11212452	    -13.69776545	     -1.87787896	    -10.47850269	      3.35116994	      1.56559061	      5.21183540	    -14.10854728	     -2.06973524	     62.38281547	     45.59999209	      0.00000000	      0.00000000	     14.15639152	    -14.56497151	      3.41188549	     38.19862863	     45.65060931	      0.00000000	      0.00000000
     30.22157143	     -3.23314060	     -3.05499241	     -3.80861892	      1.08743578	      0.93106051	      0.41542481	     35.19605880	     -6.70148638	     -4.68758663	     72.88565074	     72.88565074	      6.26727808	    -18.72773057	      9.35241585	     13.63000072	     -4.49332745	     -7.22278253	     22.40019839	     22.40019839	     13.30493308	    -13.32449057	     -2.66986919	    -10.67681289	      3.57877389	      1.19131673	      5.16865597	    -13.27020735	     -3.90463900	     55.01678693	     45.91157445	      0.00000000	      0.00000000	     15.06894624	    -15.35806184	      2.78220652	     40.58687739	     45.77881864	      0.00000000	      0.00000000
     30.23235714	     -3.05838042	     -3.17556704	     -4.09241083	      1.08682150	      0.93167053	      0.41580907	     35.89374547	     -6.44999727	     -4.51357852	     70.75046737	     70.75046737	      5.78285379	    -18.65679490	      8.74362334	     12.52067937	     -4.61531458	     -7.60182205	     21.87299107	     21.87299107	     13.59094702	    -13.04324146	     -3.02582266	    -10.94769887	      3.81793859	      1.19772486	      4.62029522	    -13.14203301	     -4.92926669	     49.09948875	     46.13655808	      0.00000000	      0.00000000	     16.15730063	    -15.86743227	      1.84765616	     43.10916873	     45.94176577	      0.00000000	      0.00000000
     30.24314286	     -2.82155377	     -3.29170491	     -4.39241521	      1.08626563	      0.93233866	      0.41621798	     36.37065640	     -6.15858389	     -4.33234796	     68.34647931	     68.34647931	      5.42902632	    -18.52315633	      8.81210835	     11.28163854	     -4.69745905	     -7.95105932	     21.23824588	     21.23824588	     13.94783114	    -12.76256191	     -3.07819180	    -11.38406449	      4.08597218	      1.86847010	      2.88442410	    -13.68870651	     -5.15390327	     46.08076953	     46.23933551	      0.00000000	      0.00000000	     17.87176218	    -15.97946010	      1.33566030	     44.91447296	     46.03501750	      0.00000000	      0.00000000
     30.25392857	     -2.76981729	     -3.38558447	     -4.63229906	      1.08569073	      0.93263658	      0.41663164	     36.84157166	     -5.96662005	     -4.33707364	     65.57074319	     65.57074319	      4.62829652	    -18.35818233	      7.50623114	     10.33700091	     -4.79642040	     -8.35881936	     20.74022500	     20.74022500	     14.21267491	    -12.35137224	     -3.53198168	    -11.46481334	      4.29092279	      1.10287177	      4.08784651	    -12.94961587	     -7.36877383	     37.48224317	     46.63683246	      0.00000000	      0.00000000	     18.16833423	    -16.81027892	     -0.17151951	     47.94421255	     46.24241867	      0.00000000	      0.00000000
     30.26471429	     -2.72963660	     -3.44707782	     -4.87339565	      1.08515878	      0.93286208	      0.41703624	     37.17245408	     -5.78223743	     -4.36743688	     62.47642074	     62.47642074	      3.79946768	    -18.09229117	      6.31763979	      9.33623399	     -4.80924243	     -8.67651165	     20.10351559	     20.10351559	     14.46272024	    -12.09929544	     -3.68607230	    -11.65284002	      4.50369535	      1.02792452	      3.69921211	    -12.92979626	     -9.21206765	     32.59570279	     46.87695073	      0.00000000	      0.00000000	     18.91586132	    -17.06691939	     -1.83853820	     50.80252941	     46.46241845	      0.00000000	      0.00000000
     30.27550000	     -2.70204021	     -3.51206766	     -5.13505077	      1.08471971	      0.93295938	      0.41757612	     37.36497461	     -5.51254603	     -4.36225403	     59.11163593	     59.11163593	      3.40801934	    -17.57900697	      6.30495281	      8.34211480	     -4.82240297	     -8.97223466	     19.47720263	     19.47720263	     14.78282790	    -11.83841952	     -3.73195706	    -11.85434184	      4.72098110	      1.67195880	      1.95883198	    -13.50412698	     -9.53976880	     30.50868086	     46.96039559	      0.00000000	      0.00000000	     20.42594462	    -17.03581061	     -2.33147111	     52.64567360	     46.54458656	      0.00000000	      0.00000000
